<mxfile host="app.diagrams.net" modified="2024-04-27T19:35:56.254Z" agent="Mozilla/5.0 (Windows NT 10.0; Win64; x64) AppleWebKit/537.36 (KHTML, like Gecko) Chrome/124.0.0.0 Safari/537.36 Edg/124.0.0.0" etag="hkfTvrgZOwreaANm9RIw" version="24.3.1" type="device">
  <diagram name="PÃ¡gina-1" id="z8xHlJ1F570CoT4PuZHj">
    <mxGraphModel dx="1514" dy="857" grid="1" gridSize="10" guides="1" tooltips="1" connect="1" arrows="1" fold="1" page="1" pageScale="1" pageWidth="1169" pageHeight="827" math="0" shadow="0">
      <root>
        <mxCell id="0" />
        <mxCell id="1" parent="0" />
        <mxCell id="wt57jNYae2a06j58ONiW-37" value="" style="group;fillColor=none;" parent="1" vertex="1" connectable="0">
          <mxGeometry x="40" y="130" width="1080" height="540" as="geometry" />
        </mxCell>
        <mxCell id="wt57jNYae2a06j58ONiW-6" value="" style="rounded=0;whiteSpace=wrap;html=1;" parent="wt57jNYae2a06j58ONiW-37" vertex="1">
          <mxGeometry x="30" width="1050" height="540" as="geometry" />
        </mxCell>
        <mxCell id="wt57jNYae2a06j58ONiW-27" value="eve-ng VM" style="points=[[0,0],[0.25,0],[0.5,0],[0.75,0],[1,0],[1,0.25],[1,0.5],[1,0.75],[1,1],[0.75,1],[0.5,1],[0.25,1],[0,1],[0,0.75],[0,0.5],[0,0.25]];outlineConnect=0;gradientColor=none;html=1;whiteSpace=wrap;fontSize=12;fontStyle=0;container=1;pointerEvents=0;collapsible=0;recursiveResize=0;shape=mxgraph.aws4.group;grIcon=mxgraph.aws4.group_on_premise;strokeColor=#7D8998;fillColor=none;verticalAlign=top;align=left;spacingLeft=30;fontColor=#5A6C86;dashed=0;" parent="wt57jNYae2a06j58ONiW-37" vertex="1">
          <mxGeometry x="520" y="60" width="530" height="430" as="geometry" />
        </mxCell>
        <mxCell id="wt57jNYae2a06j58ONiW-13" value="Cloud 2" style="html=1;verticalLabelPosition=bottom;align=center;labelBackgroundColor=#ffffff;verticalAlign=top;strokeWidth=2;strokeColor=#0080F0;shadow=0;dashed=0;shape=mxgraph.ios7.icons.cloud;" parent="wt57jNYae2a06j58ONiW-27" vertex="1">
          <mxGeometry x="90" y="186.5" width="70" height="42" as="geometry" />
        </mxCell>
        <mxCell id="wt57jNYae2a06j58ONiW-3" value="R1" style="shape=mxgraph.cisco.routers.router;html=1;pointerEvents=1;dashed=0;fillColor=#0080F0;strokeColor=#ffffff;strokeWidth=2;verticalLabelPosition=bottom;verticalAlign=top;align=center;outlineConnect=0;" parent="wt57jNYae2a06j58ONiW-27" vertex="1">
          <mxGeometry x="226" y="181" width="78" height="53" as="geometry" />
        </mxCell>
        <mxCell id="wt57jNYae2a06j58ONiW-18" value="" style="endArrow=none;html=1;rounded=0;" parent="wt57jNYae2a06j58ONiW-27" source="wt57jNYae2a06j58ONiW-13" target="wt57jNYae2a06j58ONiW-3" edge="1">
          <mxGeometry width="50" height="50" relative="1" as="geometry">
            <mxPoint x="60" y="290" as="sourcePoint" />
            <mxPoint x="110" y="240" as="targetPoint" />
          </mxGeometry>
        </mxCell>
        <mxCell id="wt57jNYae2a06j58ONiW-32" value="vnic2&lt;div&gt;net1&lt;/div&gt;" style="sketch=0;pointerEvents=1;shadow=0;dashed=0;html=1;strokeColor=none;fillColor=#0080F0;labelPosition=center;verticalLabelPosition=bottom;verticalAlign=top;outlineConnect=0;align=center;shape=mxgraph.office.devices.nic;" parent="wt57jNYae2a06j58ONiW-27" vertex="1">
          <mxGeometry x="-30" y="188.5" width="57" height="38" as="geometry" />
        </mxCell>
        <mxCell id="wt57jNYae2a06j58ONiW-33" value="" style="endArrow=none;html=1;rounded=0;" parent="wt57jNYae2a06j58ONiW-27" source="wt57jNYae2a06j58ONiW-13" target="wt57jNYae2a06j58ONiW-32" edge="1">
          <mxGeometry width="50" height="50" relative="1" as="geometry">
            <mxPoint x="50" y="160" as="sourcePoint" />
            <mxPoint x="100" y="110" as="targetPoint" />
          </mxGeometry>
        </mxCell>
        <mxCell id="wt57jNYae2a06j58ONiW-1" value="R2" style="shape=mxgraph.cisco.routers.router;html=1;pointerEvents=1;dashed=0;fillColor=#0080F0;strokeColor=#ffffff;strokeWidth=2;verticalLabelPosition=bottom;verticalAlign=top;align=center;outlineConnect=0;" parent="wt57jNYae2a06j58ONiW-37" vertex="1">
          <mxGeometry x="910" y="160" width="78" height="53" as="geometry" />
        </mxCell>
        <mxCell id="wt57jNYae2a06j58ONiW-2" value="R3" style="shape=mxgraph.cisco.routers.router;html=1;pointerEvents=1;dashed=0;fillColor=#0080F0;strokeColor=#ffffff;strokeWidth=2;verticalLabelPosition=bottom;verticalAlign=top;align=center;outlineConnect=0;" parent="wt57jNYae2a06j58ONiW-37" vertex="1">
          <mxGeometry x="910" y="330" width="78" height="53" as="geometry" />
        </mxCell>
        <mxCell id="wt57jNYae2a06j58ONiW-8" value="PROXMOX HYPERVISOR" style="rounded=0;whiteSpace=wrap;html=1;" parent="wt57jNYae2a06j58ONiW-37" vertex="1">
          <mxGeometry x="40" y="10" width="120" height="60" as="geometry" />
        </mxCell>
        <mxCell id="wt57jNYae2a06j58ONiW-10" value="ubuntu-server VM" style="points=[[0,0],[0.25,0],[0.5,0],[0.75,0],[1,0],[1,0.25],[1,0.5],[1,0.75],[1,1],[0.75,1],[0.5,1],[0.25,1],[0,1],[0,0.75],[0,0.5],[0,0.25]];outlineConnect=0;gradientColor=none;html=1;whiteSpace=wrap;fontSize=12;fontStyle=0;container=1;pointerEvents=0;collapsible=0;recursiveResize=0;shape=mxgraph.aws4.group;grIcon=mxgraph.aws4.group_on_premise;strokeColor=#7D8998;fillColor=none;verticalAlign=top;align=left;spacingLeft=30;fontColor=#5A6C86;dashed=0;" parent="wt57jNYae2a06j58ONiW-37" vertex="1">
          <mxGeometry x="170" y="60" width="277" height="430" as="geometry" />
        </mxCell>
        <mxCell id="wt57jNYae2a06j58ONiW-11" value="python" style="points=[[0,0],[0.25,0],[0.5,0],[0.75,0],[1,0],[1,0.25],[1,0.5],[1,0.75],[1,1],[0.75,1],[0.5,1],[0.25,1],[0,1],[0,0.75],[0,0.5],[0,0.25]];outlineConnect=0;gradientColor=none;html=1;whiteSpace=wrap;fontSize=12;fontStyle=0;container=1;pointerEvents=0;collapsible=0;recursiveResize=0;shape=mxgraph.aws4.group;grIcon=mxgraph.aws4.group_on_premise;strokeColor=#7D8998;fillColor=none;verticalAlign=top;align=left;spacingLeft=30;fontColor=#5A6C86;dashed=0;" parent="wt57jNYae2a06j58ONiW-10" vertex="1">
          <mxGeometry x="60" y="60" width="130" height="149" as="geometry" />
        </mxCell>
        <mxCell id="wt57jNYae2a06j58ONiW-29" value="vnic1&lt;div&gt;net1&lt;/div&gt;" style="sketch=0;pointerEvents=1;shadow=0;dashed=0;html=1;strokeColor=none;fillColor=#0080F0;labelPosition=center;verticalLabelPosition=bottom;verticalAlign=top;outlineConnect=0;align=center;shape=mxgraph.office.devices.nic;" parent="wt57jNYae2a06j58ONiW-10" vertex="1">
          <mxGeometry x="240" y="188.5" width="57" height="38" as="geometry" />
        </mxCell>
        <mxCell id="wt57jNYae2a06j58ONiW-20" value="" style="endArrow=none;html=1;rounded=0;" parent="wt57jNYae2a06j58ONiW-37" source="wt57jNYae2a06j58ONiW-2" target="wt57jNYae2a06j58ONiW-1" edge="1">
          <mxGeometry width="50" height="50" relative="1" as="geometry">
            <mxPoint x="550" y="350" as="sourcePoint" />
            <mxPoint x="600" y="300" as="targetPoint" />
          </mxGeometry>
        </mxCell>
        <mxCell id="wt57jNYae2a06j58ONiW-21" value="" style="endArrow=none;html=1;rounded=0;entryX=1;entryY=0.5;entryDx=0;entryDy=0;entryPerimeter=0;" parent="wt57jNYae2a06j58ONiW-37" source="wt57jNYae2a06j58ONiW-2" target="wt57jNYae2a06j58ONiW-3" edge="1">
          <mxGeometry width="50" height="50" relative="1" as="geometry">
            <mxPoint x="550" y="350" as="sourcePoint" />
            <mxPoint x="600" y="300" as="targetPoint" />
          </mxGeometry>
        </mxCell>
        <mxCell id="wt57jNYae2a06j58ONiW-22" value="" style="endArrow=none;html=1;rounded=0;entryX=0;entryY=0.5;entryDx=0;entryDy=0;entryPerimeter=0;exitX=1;exitY=0.5;exitDx=0;exitDy=0;exitPerimeter=0;" parent="wt57jNYae2a06j58ONiW-37" source="wt57jNYae2a06j58ONiW-3" target="wt57jNYae2a06j58ONiW-1" edge="1">
          <mxGeometry width="50" height="50" relative="1" as="geometry">
            <mxPoint x="680" y="370" as="sourcePoint" />
            <mxPoint x="730" y="320" as="targetPoint" />
          </mxGeometry>
        </mxCell>
        <mxCell id="wt57jNYae2a06j58ONiW-28" value="vnic0&lt;div&gt;bridge&lt;/div&gt;" style="sketch=0;pointerEvents=1;shadow=0;dashed=0;html=1;strokeColor=none;fillColor=#0080F0;labelPosition=center;verticalLabelPosition=bottom;verticalAlign=top;outlineConnect=0;align=center;shape=mxgraph.office.devices.nic;" parent="wt57jNYae2a06j58ONiW-37" vertex="1">
          <mxGeometry x="140" y="251" width="57" height="38" as="geometry" />
        </mxCell>
        <mxCell id="wt57jNYae2a06j58ONiW-31" value="nic0&lt;div&gt;bridge&lt;/div&gt;" style="sketch=0;pointerEvents=1;shadow=0;dashed=0;html=1;strokeColor=none;fillColor=#0080F0;labelPosition=center;verticalLabelPosition=bottom;verticalAlign=top;outlineConnect=0;align=center;shape=mxgraph.office.devices.nic;" parent="wt57jNYae2a06j58ONiW-37" vertex="1">
          <mxGeometry y="251" width="57" height="38" as="geometry" />
        </mxCell>
        <mxCell id="wt57jNYae2a06j58ONiW-34" value="" style="endArrow=none;html=1;rounded=0;" parent="wt57jNYae2a06j58ONiW-37" source="wt57jNYae2a06j58ONiW-32" target="wt57jNYae2a06j58ONiW-29" edge="1">
          <mxGeometry width="50" height="50" relative="1" as="geometry">
            <mxPoint x="570" y="220" as="sourcePoint" />
            <mxPoint x="620" y="170" as="targetPoint" />
          </mxGeometry>
        </mxCell>
        <mxCell id="wt57jNYae2a06j58ONiW-35" value="" style="endArrow=none;html=1;rounded=0;" parent="wt57jNYae2a06j58ONiW-37" source="wt57jNYae2a06j58ONiW-28" target="wt57jNYae2a06j58ONiW-31" edge="1">
          <mxGeometry width="50" height="50" relative="1" as="geometry">
            <mxPoint x="570" y="220" as="sourcePoint" />
            <mxPoint x="620" y="170" as="targetPoint" />
          </mxGeometry>
        </mxCell>
        <mxCell id="wt57jNYae2a06j58ONiW-38" value="10.10.3.0/24" style="text;html=1;align=center;verticalAlign=middle;whiteSpace=wrap;rounded=0;strokeColor=default;fillColor=default;" parent="wt57jNYae2a06j58ONiW-37" vertex="1">
          <mxGeometry x="430" y="213" width="290" height="30" as="geometry" />
        </mxCell>
        <mxCell id="wt57jNYae2a06j58ONiW-39" value="20.20.3.0/24" style="text;html=1;align=center;verticalAlign=middle;whiteSpace=wrap;rounded=0;" parent="wt57jNYae2a06j58ONiW-37" vertex="1">
          <mxGeometry x="800" y="190" width="60" height="30" as="geometry" />
        </mxCell>
        <mxCell id="wt57jNYae2a06j58ONiW-40" value="40.40.3.0/24" style="text;html=1;align=center;verticalAlign=middle;whiteSpace=wrap;rounded=0;" parent="wt57jNYae2a06j58ONiW-37" vertex="1">
          <mxGeometry x="960" y="255" width="60" height="30" as="geometry" />
        </mxCell>
        <mxCell id="wt57jNYae2a06j58ONiW-41" value="30.30.3.0/24" style="text;html=1;align=center;verticalAlign=middle;whiteSpace=wrap;rounded=0;" parent="wt57jNYae2a06j58ONiW-37" vertex="1">
          <mxGeometry x="810" y="310" width="60" height="30" as="geometry" />
        </mxCell>
        <mxCell id="wt57jNYae2a06j58ONiW-42" value="snmp-app" style="sketch=0;outlineConnect=0;fontColor=#232F3E;gradientColor=none;strokeColor=#0080F0;fillColor=#ffffff;dashed=0;verticalLabelPosition=bottom;verticalAlign=top;align=center;html=1;fontSize=12;fontStyle=0;aspect=fixed;shape=mxgraph.aws4.resourceIcon;resIcon=mxgraph.aws4.container_1;" parent="wt57jNYae2a06j58ONiW-37" vertex="1">
          <mxGeometry x="260" y="149.75" width="73.5" height="73.5" as="geometry" />
        </mxCell>
        <mxCell id="wt57jNYae2a06j58ONiW-36" value="Expose:&lt;div&gt;80:80/tcp&lt;/div&gt;&lt;div&gt;161:161/udp&lt;/div&gt;" style="rounded=0;whiteSpace=wrap;html=1;" parent="wt57jNYae2a06j58ONiW-37" vertex="1">
          <mxGeometry x="235" y="255" width="120" height="60" as="geometry" />
        </mxCell>
      </root>
    </mxGraphModel>
  </diagram>
</mxfile>
